<mxfile host="65bd71144e">
    <diagram id="hoKsERZFXDBHT7us3bM6" name="Page-1">
        <mxGraphModel dx="1551" dy="1113" grid="1" gridSize="10" guides="1" tooltips="1" connect="1" arrows="1" fold="1" page="1" pageScale="1" pageWidth="1169" pageHeight="827" math="0" shadow="0">
            <root>
                <mxCell id="0"/>
                <mxCell id="1" parent="0"/>
                <mxCell id="61" style="edgeStyle=none;html=1;exitX=0;exitY=0;exitDx=110;exitDy=10;exitPerimeter=0;entryX=0;entryY=0;entryDx=0;entryDy=30;entryPerimeter=0;strokeWidth=2;" edge="1" parent="1" source="2" target="9">
                    <mxGeometry relative="1" as="geometry"/>
                </mxCell>
                <mxCell id="2" value="bomb1Temp" style="externalPins=0;recursiveResize=0;shadow=0;dashed=0;align=center;html=1;strokeWidth=1;shape=mxgraph.rtl.abstract.entity;container=1;collapsible=0;kind=input;drawPins=0;left=0;right=1;bottom=0;top=0;" vertex="1" parent="1">
                    <mxGeometry x="9" y="354" width="110" height="20" as="geometry"/>
                </mxCell>
                <mxCell id="62" style="edgeStyle=none;html=1;exitX=0;exitY=0;exitDx=110;exitDy=10;exitPerimeter=0;entryX=0;entryY=0;entryDx=0;entryDy=60;entryPerimeter=0;strokeWidth=2;" edge="1" parent="1" source="5" target="9">
                    <mxGeometry relative="1" as="geometry"/>
                </mxCell>
                <mxCell id="5" value="bomb2Temp" style="externalPins=0;recursiveResize=0;shadow=0;dashed=0;align=center;html=1;strokeWidth=1;shape=mxgraph.rtl.abstract.entity;container=1;collapsible=0;kind=input;drawPins=0;left=0;right=1;bottom=0;top=0;" vertex="1" parent="1">
                    <mxGeometry x="9" y="384" width="110" height="20" as="geometry"/>
                </mxCell>
                <mxCell id="63" style="edgeStyle=none;html=1;exitX=0;exitY=0;exitDx=110;exitDy=10;exitPerimeter=0;entryX=0;entryY=0;entryDx=0;entryDy=90;entryPerimeter=0;strokeWidth=2;" edge="1" parent="1" source="6" target="9">
                    <mxGeometry relative="1" as="geometry"/>
                </mxCell>
                <mxCell id="6" value="bomb3Temp" style="externalPins=0;recursiveResize=0;shadow=0;dashed=0;align=center;html=1;strokeWidth=1;shape=mxgraph.rtl.abstract.entity;container=1;collapsible=0;kind=input;drawPins=0;left=0;right=1;bottom=0;top=0;" vertex="1" parent="1">
                    <mxGeometry x="9" y="414" width="110" height="20" as="geometry"/>
                </mxCell>
                <mxCell id="111" style="edgeStyle=none;html=1;exitX=0;exitY=0;exitDx=70;exitDy=10;exitPerimeter=0;entryX=0;entryY=0;entryDx=0;entryDy=120;entryPerimeter=0;strokeWidth=1;rounded=0;" edge="1" parent="1" source="7" target="9">
                    <mxGeometry relative="1" as="geometry">
                        <Array as="points">
                            <mxPoint x="140" y="540"/>
                            <mxPoint x="140" y="454"/>
                        </Array>
                    </mxGeometry>
                </mxCell>
                <mxCell id="113" style="edgeStyle=none;rounded=0;html=1;exitX=0;exitY=0;exitDx=70;exitDy=10;exitPerimeter=0;entryX=-0.004;entryY=0.838;entryDx=0;entryDy=0;entryPerimeter=0;strokeWidth=1;" edge="1" parent="1" source="7" target="69">
                    <mxGeometry relative="1" as="geometry">
                        <Array as="points">
                            <mxPoint x="350" y="540"/>
                            <mxPoint x="350" y="468"/>
                        </Array>
                    </mxGeometry>
                </mxCell>
                <mxCell id="115" style="edgeStyle=none;rounded=0;html=1;exitX=0;exitY=0;exitDx=70;exitDy=10;exitPerimeter=0;entryX=-0.003;entryY=0.844;entryDx=0;entryDy=0;entryPerimeter=0;strokeWidth=1;" edge="1" parent="1" source="7" target="88">
                    <mxGeometry relative="1" as="geometry">
                        <Array as="points">
                            <mxPoint x="550" y="540"/>
                            <mxPoint x="550" y="470"/>
                        </Array>
                    </mxGeometry>
                </mxCell>
                <mxCell id="117" style="edgeStyle=none;rounded=0;html=1;exitX=0;exitY=0;exitDx=70;exitDy=10;exitPerimeter=0;entryX=0.019;entryY=0.831;entryDx=0;entryDy=0;entryPerimeter=0;strokeWidth=1;" edge="1" parent="1" source="7" target="99">
                    <mxGeometry relative="1" as="geometry">
                        <Array as="points">
                            <mxPoint x="800" y="540"/>
                            <mxPoint x="800" y="466"/>
                        </Array>
                    </mxGeometry>
                </mxCell>
                <mxCell id="7" value="reset" style="externalPins=0;recursiveResize=0;shadow=0;dashed=0;align=center;html=1;strokeWidth=1;shape=mxgraph.rtl.abstract.entity;container=1;collapsible=0;kind=input;drawPins=0;left=0;right=1;bottom=0;top=0;" vertex="1" parent="1">
                    <mxGeometry x="29" y="530" width="70" height="20" as="geometry"/>
                </mxCell>
                <mxCell id="112" style="edgeStyle=none;rounded=0;html=1;exitX=0;exitY=0;exitDx=70;exitDy=10;exitPerimeter=0;entryX=0;entryY=0.5;entryDx=0;entryDy=0;strokeWidth=1;" edge="1" parent="1" source="8" target="13">
                    <mxGeometry relative="1" as="geometry">
                        <Array as="points">
                            <mxPoint x="160" y="570"/>
                            <mxPoint x="160" y="484"/>
                        </Array>
                    </mxGeometry>
                </mxCell>
                <mxCell id="114" style="edgeStyle=none;rounded=0;html=1;exitX=0;exitY=0;exitDx=70;exitDy=10;exitPerimeter=0;entryX=0;entryY=0.5;entryDx=0;entryDy=0;strokeWidth=1;" edge="1" parent="1" source="8" target="70">
                    <mxGeometry relative="1" as="geometry">
                        <Array as="points">
                            <mxPoint x="370" y="570"/>
                            <mxPoint x="370" y="484"/>
                        </Array>
                    </mxGeometry>
                </mxCell>
                <mxCell id="116" style="edgeStyle=none;rounded=0;html=1;exitX=0;exitY=0;exitDx=70;exitDy=10;exitPerimeter=0;entryX=0;entryY=0.5;entryDx=0;entryDy=0;strokeWidth=1;" edge="1" parent="1" source="8" target="89">
                    <mxGeometry relative="1" as="geometry">
                        <Array as="points">
                            <mxPoint x="590" y="570"/>
                            <mxPoint x="590" y="484"/>
                        </Array>
                    </mxGeometry>
                </mxCell>
                <mxCell id="118" style="edgeStyle=none;rounded=0;html=1;exitX=0;exitY=0;exitDx=70;exitDy=10;exitPerimeter=0;entryX=0;entryY=0.5;entryDx=0;entryDy=0;strokeWidth=1;" edge="1" parent="1" source="8" target="100">
                    <mxGeometry relative="1" as="geometry">
                        <Array as="points">
                            <mxPoint x="840" y="570"/>
                            <mxPoint x="840" y="483"/>
                        </Array>
                    </mxGeometry>
                </mxCell>
                <mxCell id="8" value="clock" style="externalPins=0;recursiveResize=0;shadow=0;dashed=0;align=center;html=1;strokeWidth=1;shape=mxgraph.rtl.abstract.entity;container=1;collapsible=0;kind=input;drawPins=0;left=0;right=1;bottom=0;top=0;" vertex="1" parent="1">
                    <mxGeometry x="29" y="560" width="70" height="20" as="geometry"/>
                </mxCell>
                <mxCell id="73" style="edgeStyle=none;html=1;entryX=0;entryY=0;entryDx=0;entryDy=40;entryPerimeter=0;strokeWidth=2;exitX=0.995;exitY=0.253;exitDx=0;exitDy=0;exitPerimeter=0;" edge="1" parent="1" source="9" target="69">
                    <mxGeometry relative="1" as="geometry"/>
                </mxCell>
                <mxCell id="76" value="bomb1Col0" style="edgeLabel;html=1;align=center;verticalAlign=middle;resizable=0;points=[];" vertex="1" connectable="0" parent="73">
                    <mxGeometry x="-0.1506" y="-1" relative="1" as="geometry">
                        <mxPoint y="-11" as="offset"/>
                    </mxGeometry>
                </mxCell>
                <mxCell id="74" style="edgeStyle=none;html=1;entryX=0;entryY=0;entryDx=0;entryDy=80;entryPerimeter=0;strokeWidth=2;" edge="1" parent="1" source="9" target="69">
                    <mxGeometry relative="1" as="geometry"/>
                </mxCell>
                <mxCell id="77" value="bomb2Col0" style="edgeLabel;html=1;align=center;verticalAlign=middle;resizable=0;points=[];" vertex="1" connectable="0" parent="74">
                    <mxGeometry x="-0.1156" y="1" relative="1" as="geometry">
                        <mxPoint y="-9" as="offset"/>
                    </mxGeometry>
                </mxCell>
                <mxCell id="75" style="edgeStyle=none;html=1;entryX=0;entryY=0;entryDx=0;entryDy=120;entryPerimeter=0;strokeWidth=2;exitX=0.991;exitY=0.749;exitDx=0;exitDy=0;exitPerimeter=0;" edge="1" parent="1" source="9" target="69">
                    <mxGeometry relative="1" as="geometry"/>
                </mxCell>
                <mxCell id="78" value="bomb3Col0" style="edgeLabel;html=1;align=center;verticalAlign=middle;resizable=0;points=[];" vertex="1" connectable="0" parent="75">
                    <mxGeometry x="-0.1355" y="-2" relative="1" as="geometry">
                        <mxPoint y="-12" as="offset"/>
                    </mxGeometry>
                </mxCell>
                <mxCell id="9" value="" style="externalPins=0;recursiveResize=0;shadow=0;dashed=0;align=center;html=1;strokeWidth=1;shape=mxgraph.rtl.abstract.entity;container=1;collapsible=0;kind=sequential;drawPins=0;left=3;right=2;bottom=0;top=0;" vertex="1" parent="1">
                    <mxGeometry x="219" y="334" width="80" height="160" as="geometry"/>
                </mxCell>
                <mxCell id="13" value="" style="triangle;whiteSpace=wrap;html=1;" vertex="1" parent="9">
                    <mxGeometry y="140" width="10" height="20" as="geometry"/>
                </mxCell>
                <mxCell id="12" value="finalBombLocation" style="externalPins=0;recursiveResize=0;shadow=0;dashed=0;align=center;html=1;strokeWidth=1;shape=mxgraph.rtl.abstract.entity;container=1;collapsible=0;kind=input;drawPins=0;left=0;right=1;bottom=0;top=0;" vertex="1" parent="1">
                    <mxGeometry x="1039" y="402" width="120" height="20" as="geometry"/>
                </mxCell>
                <mxCell id="66" value="5" style="verticalLabelPosition=top;shadow=0;dashed=0;align=center;html=1;verticalAlign=bottom;shape=mxgraph.electrical.transmission.bus_width;pointerEvents=1;labelPosition=center;" vertex="1" parent="1">
                    <mxGeometry x="139" y="359" width="10" height="10" as="geometry"/>
                </mxCell>
                <mxCell id="67" value="5" style="verticalLabelPosition=top;shadow=0;dashed=0;align=center;html=1;verticalAlign=bottom;shape=mxgraph.electrical.transmission.bus_width;pointerEvents=1;labelPosition=center;" vertex="1" parent="1">
                    <mxGeometry x="139" y="389" width="10" height="10" as="geometry"/>
                </mxCell>
                <mxCell id="68" value="5" style="verticalLabelPosition=top;shadow=0;dashed=0;align=center;html=1;verticalAlign=bottom;shape=mxgraph.electrical.transmission.bus_width;pointerEvents=1;labelPosition=center;" vertex="1" parent="1">
                    <mxGeometry x="138" y="419" width="10" height="10" as="geometry"/>
                </mxCell>
                <mxCell id="69" value="" style="externalPins=0;recursiveResize=0;shadow=0;dashed=0;align=center;html=1;strokeWidth=1;shape=mxgraph.rtl.abstract.entity;container=1;collapsible=0;kind=sequential;drawPins=0;left=3;right=2;bottom=0;top=0;" vertex="1" parent="1">
                    <mxGeometry x="449" y="334" width="80" height="160" as="geometry"/>
                </mxCell>
                <mxCell id="70" value="" style="triangle;whiteSpace=wrap;html=1;" vertex="1" parent="69">
                    <mxGeometry y="140" width="10" height="20" as="geometry"/>
                </mxCell>
                <mxCell id="79" value="5" style="verticalLabelPosition=top;shadow=0;dashed=0;align=center;html=1;verticalAlign=bottom;shape=mxgraph.electrical.transmission.bus_width;pointerEvents=1;labelPosition=center;" vertex="1" parent="1">
                    <mxGeometry x="309" y="369" width="10" height="10" as="geometry"/>
                </mxCell>
                <mxCell id="80" value="5" style="verticalLabelPosition=top;shadow=0;dashed=0;align=center;html=1;verticalAlign=bottom;shape=mxgraph.electrical.transmission.bus_width;pointerEvents=1;labelPosition=center;" vertex="1" parent="1">
                    <mxGeometry x="309" y="408" width="10" height="10" as="geometry"/>
                </mxCell>
                <mxCell id="81" value="5" style="verticalLabelPosition=top;shadow=0;dashed=0;align=center;html=1;verticalAlign=bottom;shape=mxgraph.electrical.transmission.bus_width;pointerEvents=1;labelPosition=center;" vertex="1" parent="1">
                    <mxGeometry x="309" y="449" width="10" height="10" as="geometry"/>
                </mxCell>
                <mxCell id="82" style="edgeStyle=none;html=1;entryX=0;entryY=0;entryDx=0;entryDy=40;entryPerimeter=0;strokeWidth=2;exitX=0.995;exitY=0.253;exitDx=0;exitDy=0;exitPerimeter=0;" edge="1" parent="1" target="88">
                    <mxGeometry relative="1" as="geometry">
                        <mxPoint x="529.3200000000002" y="374.4799999999999" as="sourcePoint"/>
                    </mxGeometry>
                </mxCell>
                <mxCell id="83" value="bomb1Col1" style="edgeLabel;html=1;align=center;verticalAlign=middle;resizable=0;points=[];" vertex="1" connectable="0" parent="82">
                    <mxGeometry x="-0.1506" y="-1" relative="1" as="geometry">
                        <mxPoint y="-11" as="offset"/>
                    </mxGeometry>
                </mxCell>
                <mxCell id="84" style="edgeStyle=none;html=1;entryX=0;entryY=0;entryDx=0;entryDy=80;entryPerimeter=0;strokeWidth=2;" edge="1" parent="1" target="88">
                    <mxGeometry relative="1" as="geometry">
                        <mxPoint x="529.72" y="413.9999999999999" as="sourcePoint"/>
                    </mxGeometry>
                </mxCell>
                <mxCell id="85" value="bomb2Col1" style="edgeLabel;html=1;align=center;verticalAlign=middle;resizable=0;points=[];" vertex="1" connectable="0" parent="84">
                    <mxGeometry x="-0.1156" y="1" relative="1" as="geometry">
                        <mxPoint y="-9" as="offset"/>
                    </mxGeometry>
                </mxCell>
                <mxCell id="86" style="edgeStyle=none;html=1;entryX=0;entryY=0;entryDx=0;entryDy=120;entryPerimeter=0;strokeWidth=2;exitX=0.991;exitY=0.749;exitDx=0;exitDy=0;exitPerimeter=0;" edge="1" parent="1" target="88">
                    <mxGeometry relative="1" as="geometry">
                        <mxPoint x="529" y="453.8399999999999" as="sourcePoint"/>
                    </mxGeometry>
                </mxCell>
                <mxCell id="87" value="bomb3Col1" style="edgeLabel;html=1;align=center;verticalAlign=middle;resizable=0;points=[];" vertex="1" connectable="0" parent="86">
                    <mxGeometry x="-0.1355" y="-2" relative="1" as="geometry">
                        <mxPoint y="-12" as="offset"/>
                    </mxGeometry>
                </mxCell>
                <mxCell id="88" value="" style="externalPins=0;recursiveResize=0;shadow=0;dashed=0;align=center;html=1;strokeWidth=1;shape=mxgraph.rtl.abstract.entity;container=1;collapsible=0;kind=sequential;drawPins=0;left=3;right=2;bottom=0;top=0;" vertex="1" parent="1">
                    <mxGeometry x="679.72" y="334" width="80" height="160" as="geometry"/>
                </mxCell>
                <mxCell id="89" value="" style="triangle;whiteSpace=wrap;html=1;" vertex="1" parent="88">
                    <mxGeometry y="140" width="10" height="20" as="geometry"/>
                </mxCell>
                <mxCell id="90" value="5" style="verticalLabelPosition=top;shadow=0;dashed=0;align=center;html=1;verticalAlign=bottom;shape=mxgraph.electrical.transmission.bus_width;pointerEvents=1;labelPosition=center;" vertex="1" parent="1">
                    <mxGeometry x="539.72" y="369" width="10" height="10" as="geometry"/>
                </mxCell>
                <mxCell id="91" value="5" style="verticalLabelPosition=top;shadow=0;dashed=0;align=center;html=1;verticalAlign=bottom;shape=mxgraph.electrical.transmission.bus_width;pointerEvents=1;labelPosition=center;" vertex="1" parent="1">
                    <mxGeometry x="539.72" y="408" width="10" height="10" as="geometry"/>
                </mxCell>
                <mxCell id="92" value="5" style="verticalLabelPosition=top;shadow=0;dashed=0;align=center;html=1;verticalAlign=bottom;shape=mxgraph.electrical.transmission.bus_width;pointerEvents=1;labelPosition=center;" vertex="1" parent="1">
                    <mxGeometry x="539.72" y="449" width="10" height="10" as="geometry"/>
                </mxCell>
                <mxCell id="93" style="edgeStyle=none;html=1;entryX=0;entryY=0;entryDx=0;entryDy=40;entryPerimeter=0;strokeWidth=2;exitX=0.995;exitY=0.253;exitDx=0;exitDy=0;exitPerimeter=0;" edge="1" parent="1" target="99">
                    <mxGeometry relative="1" as="geometry">
                        <mxPoint x="760.0400000000002" y="373.4799999999999" as="sourcePoint"/>
                    </mxGeometry>
                </mxCell>
                <mxCell id="94" value="bomb1Col2" style="edgeLabel;html=1;align=center;verticalAlign=middle;resizable=0;points=[];" vertex="1" connectable="0" parent="93">
                    <mxGeometry x="-0.1506" y="-1" relative="1" as="geometry">
                        <mxPoint y="-11" as="offset"/>
                    </mxGeometry>
                </mxCell>
                <mxCell id="95" style="edgeStyle=none;html=1;entryX=0;entryY=0;entryDx=0;entryDy=80;entryPerimeter=0;strokeWidth=2;" edge="1" parent="1" target="99">
                    <mxGeometry relative="1" as="geometry">
                        <mxPoint x="760.44" y="412.9999999999999" as="sourcePoint"/>
                    </mxGeometry>
                </mxCell>
                <mxCell id="96" value="bomb2Col2" style="edgeLabel;html=1;align=center;verticalAlign=middle;resizable=0;points=[];" vertex="1" connectable="0" parent="95">
                    <mxGeometry x="-0.1156" y="1" relative="1" as="geometry">
                        <mxPoint y="-9" as="offset"/>
                    </mxGeometry>
                </mxCell>
                <mxCell id="97" style="edgeStyle=none;html=1;entryX=0;entryY=0;entryDx=0;entryDy=120;entryPerimeter=0;strokeWidth=2;exitX=0.991;exitY=0.749;exitDx=0;exitDy=0;exitPerimeter=0;" edge="1" parent="1" target="99">
                    <mxGeometry relative="1" as="geometry">
                        <mxPoint x="759.72" y="452.8399999999999" as="sourcePoint"/>
                    </mxGeometry>
                </mxCell>
                <mxCell id="98" value="bomb3Col2" style="edgeLabel;html=1;align=center;verticalAlign=middle;resizable=0;points=[];" vertex="1" connectable="0" parent="97">
                    <mxGeometry x="-0.1355" y="-2" relative="1" as="geometry">
                        <mxPoint y="-12" as="offset"/>
                    </mxGeometry>
                </mxCell>
                <mxCell id="104" style="edgeStyle=none;html=1;entryX=-0.006;entryY=0.573;entryDx=0;entryDy=0;entryPerimeter=0;strokeWidth=2;" edge="1" parent="1" source="99" target="12">
                    <mxGeometry relative="1" as="geometry"/>
                </mxCell>
                <mxCell id="99" value="" style="externalPins=0;recursiveResize=0;shadow=0;dashed=0;align=center;html=1;strokeWidth=1;shape=mxgraph.rtl.abstract.entity;container=1;collapsible=0;kind=sequential;drawPins=0;left=3;right=2;bottom=0;top=0;" vertex="1" parent="1">
                    <mxGeometry x="910.44" y="333" width="80" height="160" as="geometry"/>
                </mxCell>
                <mxCell id="100" value="" style="triangle;whiteSpace=wrap;html=1;" vertex="1" parent="99">
                    <mxGeometry y="140" width="10" height="20" as="geometry"/>
                </mxCell>
                <mxCell id="101" value="5" style="verticalLabelPosition=top;shadow=0;dashed=0;align=center;html=1;verticalAlign=bottom;shape=mxgraph.electrical.transmission.bus_width;pointerEvents=1;labelPosition=center;" vertex="1" parent="1">
                    <mxGeometry x="770.44" y="368" width="10" height="10" as="geometry"/>
                </mxCell>
                <mxCell id="102" value="5" style="verticalLabelPosition=top;shadow=0;dashed=0;align=center;html=1;verticalAlign=bottom;shape=mxgraph.electrical.transmission.bus_width;pointerEvents=1;labelPosition=center;" vertex="1" parent="1">
                    <mxGeometry x="770.44" y="407" width="10" height="10" as="geometry"/>
                </mxCell>
                <mxCell id="103" value="5" style="verticalLabelPosition=top;shadow=0;dashed=0;align=center;html=1;verticalAlign=bottom;shape=mxgraph.electrical.transmission.bus_width;pointerEvents=1;labelPosition=center;" vertex="1" parent="1">
                    <mxGeometry x="770.44" y="448" width="10" height="10" as="geometry"/>
                </mxCell>
                <mxCell id="106" value="16" style="verticalLabelPosition=top;shadow=0;dashed=0;align=center;html=1;verticalAlign=bottom;shape=mxgraph.electrical.transmission.bus_width;pointerEvents=1;labelPosition=center;" vertex="1" parent="1">
                    <mxGeometry x="999" y="408" width="10" height="10" as="geometry"/>
                </mxCell>
                <mxCell id="107" value="COLLISIONCHAIN0" style="text;html=1;align=center;verticalAlign=middle;resizable=0;points=[];autosize=1;strokeColor=none;fillColor=none;" vertex="1" parent="1">
                    <mxGeometry x="210" y="311" width="130" height="30" as="geometry"/>
                </mxCell>
                <mxCell id="108" value="COLLISIONCHAIN1" style="text;html=1;align=center;verticalAlign=middle;resizable=0;points=[];autosize=1;strokeColor=none;fillColor=none;" vertex="1" parent="1">
                    <mxGeometry x="440" y="310" width="130" height="30" as="geometry"/>
                </mxCell>
                <mxCell id="109" value="COLLISIONCHAIN2" style="text;html=1;align=center;verticalAlign=middle;resizable=0;points=[];autosize=1;strokeColor=none;fillColor=none;" vertex="1" parent="1">
                    <mxGeometry x="670" y="311" width="130" height="30" as="geometry"/>
                </mxCell>
                <mxCell id="110" value="COLLISIONCHAINFINAL" style="text;html=1;align=center;verticalAlign=middle;resizable=0;points=[];autosize=1;strokeColor=none;fillColor=none;" vertex="1" parent="1">
                    <mxGeometry x="900" y="310" width="160" height="30" as="geometry"/>
                </mxCell>
                <mxCell id="119" value="" style="externalPins=0;recursiveResize=0;ellipse;whiteSpace=wrap;html=1;aspect=fixed;fillColor=#000000;strokeColor=none;noLabel=1;snapToPoint=1;perimeter=none;resizable=0;rotatable=0;" vertex="1" parent="1">
                    <mxGeometry x="137" y="537" width="5" height="5" as="geometry"/>
                </mxCell>
                <mxCell id="121" value="" style="externalPins=0;recursiveResize=0;ellipse;whiteSpace=wrap;html=1;aspect=fixed;fillColor=#000000;strokeColor=none;noLabel=1;snapToPoint=1;perimeter=none;resizable=0;rotatable=0;" vertex="1" parent="1">
                    <mxGeometry x="158" y="567" width="5" height="5" as="geometry"/>
                </mxCell>
                <mxCell id="122" value="" style="externalPins=0;recursiveResize=0;ellipse;whiteSpace=wrap;html=1;aspect=fixed;fillColor=#000000;strokeColor=none;noLabel=1;snapToPoint=1;perimeter=none;resizable=0;rotatable=0;" vertex="1" parent="1">
                    <mxGeometry x="347" y="537" width="5" height="5" as="geometry"/>
                </mxCell>
                <mxCell id="123" value="" style="externalPins=0;recursiveResize=0;ellipse;whiteSpace=wrap;html=1;aspect=fixed;fillColor=#000000;strokeColor=none;noLabel=1;snapToPoint=1;perimeter=none;resizable=0;rotatable=0;" vertex="1" parent="1">
                    <mxGeometry x="368" y="567" width="5" height="5" as="geometry"/>
                </mxCell>
                <mxCell id="124" value="" style="externalPins=0;recursiveResize=0;ellipse;whiteSpace=wrap;html=1;aspect=fixed;fillColor=#000000;strokeColor=none;noLabel=1;snapToPoint=1;perimeter=none;resizable=0;rotatable=0;" vertex="1" parent="1">
                    <mxGeometry x="547" y="537" width="5" height="5" as="geometry"/>
                </mxCell>
                <mxCell id="125" value="" style="externalPins=0;recursiveResize=0;ellipse;whiteSpace=wrap;html=1;aspect=fixed;fillColor=#000000;strokeColor=none;noLabel=1;snapToPoint=1;perimeter=none;resizable=0;rotatable=0;" vertex="1" parent="1">
                    <mxGeometry x="587" y="568" width="5" height="5" as="geometry"/>
                </mxCell>
            </root>
        </mxGraphModel>
    </diagram>
</mxfile>